<svg width="47" height="64" viewBox="0 0 47 64" fill="none" xmlns="http://www.w3.org/2000/svg">
<g filter="url(#filter0_i_6331_2044)">
<path d="M23.1784 0C10.3977 0 0 10.3977 0 23.1783C0 39.0393 20.7424 62.3241 21.6255 63.3076C22.455 64.2315 23.9033 64.2299 24.7313 63.3076C25.6144 62.3241 46.3568 39.0393 46.3568 23.1783C46.3565 10.3977 35.9589 0 23.1784 0ZM23.1784 34.8399C16.7481 34.8399 11.5169 29.6085 11.5169 23.1783C11.5169 16.748 16.7482 11.5168 23.1784 11.5168C29.6085 11.5168 34.8397 16.7481 34.8397 23.1784C34.8397 29.6086 29.6085 34.8399 23.1784 34.8399Z" fill="#364B76"/>
<path d="M17.4966 26.3004L23.0966 21.8204C23.6166 21.4204 23.8766 21.0071 23.8766 20.5804C23.8766 20.3004 23.7833 20.0671 23.5966 19.8804C23.4233 19.6804 23.1699 19.5804 22.8366 19.5804C22.4499 19.5804 22.1299 19.7338 21.8766 20.0404C21.6233 20.3471 21.4833 20.7604 21.4566 21.2804L16.9166 20.7604C17.0899 19.0271 17.7766 17.7071 18.9766 16.8004C20.1766 15.8938 21.5966 15.4404 23.2366 15.4404C23.9699 15.4404 24.6633 15.5271 25.3166 15.7004C25.9699 15.8738 26.5699 16.1404 27.1166 16.5004C27.6766 16.8471 28.1166 17.3271 28.4366 17.9404C28.7699 18.5538 28.9366 19.2604 28.9366 20.0604C28.9366 20.7938 28.7899 21.4604 28.4966 22.0604C28.2166 22.6471 27.9033 23.1071 27.5566 23.4404C27.2099 23.7738 26.7499 24.1404 26.1766 24.5404L24.0966 26.0204H28.9766V30.0004H17.4966V26.3004Z" fill="#364B76"/>
</g>
<defs>
<filter id="filter0_i_6331_2044" x="0" y="0" width="46.3567" height="64" filterUnits="userSpaceOnUse" color-interpolation-filters="sRGB">
<feFlood flood-opacity="0" result="BackgroundImageFix"/>
<feBlend mode="normal" in="SourceGraphic" in2="BackgroundImageFix" result="shape"/>
<feColorMatrix in="SourceAlpha" type="matrix" values="0 0 0 0 0 0 0 0 0 0 0 0 0 0 0 0 0 0 127 0" result="hardAlpha"/>
<feOffset/>
<feGaussianBlur stdDeviation="3.5"/>
<feComposite in2="hardAlpha" operator="arithmetic" k2="-1" k3="1"/>
<feColorMatrix type="matrix" values="0 0 0 0 0.0431597 0 0 0 0 0.137248 0 0 0 0 0.470833 0 0 0 0.2 0"/>
<feBlend mode="normal" in2="shape" result="effect1_innerShadow_6331_2044"/>
</filter>
</defs>
</svg>
