<svg width="84" height="20" viewBox="0 0 84 20" fill="none" xmlns="http://www.w3.org/2000/svg">
<g opacity="0.8">
<path d="M0 8.148V1.872C0.904 1.84 1.612 1.824 2.124 1.824C2.884 1.824 3.448 1.964 3.816 2.244C4.192 2.516 4.38 2.896 4.38 3.384C4.38 3.744 4.276 4.056 4.068 4.32C3.86 4.584 3.576 4.764 3.216 4.86V4.872C4.144 5.008 4.608 5.492 4.608 6.324C4.608 6.932 4.38 7.396 3.924 7.716C3.468 8.036 2.848 8.196 2.064 8.196C1.168 8.196 0.48 8.18 0 8.148ZM2.196 5.424H1.02V7.188C1.244 7.22 1.616 7.236 2.136 7.236C3.104 7.236 3.588 6.92 3.588 6.288C3.588 5.712 3.124 5.424 2.196 5.424ZM2.112 2.784C1.84 2.784 1.476 2.796 1.02 2.82V4.524H2.172C2.516 4.524 2.8 4.444 3.024 4.284C3.248 4.124 3.36 3.912 3.36 3.648C3.36 3.072 2.944 2.784 2.112 2.784Z" fill="#364B76"/>
<path d="M10.709 8.16H6.53297V1.86H10.613V2.82H7.55297V4.5H10.313V5.46H7.55297V7.2H10.709V8.16Z" fill="#364B76"/>
<path d="M14.0603 2.82H11.7203V1.86H17.4323V2.82H15.0803V8.16H14.0603V2.82Z" fill="#364B76"/>
<path d="M22.9546 8.16H18.7786V1.86H22.8586V2.82H19.7986V4.5H22.5586V5.46H19.7986V7.2H22.9546V8.16Z" fill="#364B76"/>
<path d="M25.898 6.024V8.16H24.878V1.86C25.158 1.86 25.462 1.856 25.79 1.848C26.118 1.84 26.442 1.836 26.762 1.836C27.658 1.836 28.318 2.024 28.742 2.4C29.166 2.768 29.378 3.28 29.378 3.936C29.378 4.568 29.154 5.08 28.706 5.472C28.266 5.864 27.654 6.06 26.87 6.06C26.55 6.06 26.226 6.048 25.898 6.024ZM26.858 2.796C26.682 2.796 26.362 2.804 25.898 2.82V5.052C26.274 5.084 26.586 5.1 26.834 5.1C27.29 5.1 27.646 4.996 27.902 4.788C28.166 4.58 28.298 4.296 28.298 3.936C28.298 3.176 27.818 2.796 26.858 2.796Z" fill="#364B76"/>
<path d="M35.9423 3.48L32.0063 8.16H31.1063V1.86H32.1263V6.54L36.0623 1.86H36.9623V8.16H35.9423V3.48Z" fill="#364B76"/>
<path d="M44.8853 8.16H43.8652V5.424H40.2412V8.16H39.2212V1.86H40.2412V4.464H43.8652V1.86H44.8853V8.16Z" fill="#364B76"/>
<path d="M47.305 8.16H46.273L49.225 1.824H50.113L53.065 8.16H51.973L51.205 6.48H48.073L47.305 8.16ZM50.773 5.52L49.645 3.048L48.505 5.52H50.773Z" fill="#364B76"/>
<path d="M55.4752 6.024V8.16H54.4552V1.86C54.7352 1.86 55.0392 1.856 55.3672 1.848C55.6952 1.84 56.0192 1.836 56.3392 1.836C57.2352 1.836 57.8952 2.024 58.3192 2.4C58.7432 2.768 58.9552 3.28 58.9552 3.936C58.9552 4.568 58.7312 5.08 58.2832 5.472C57.8432 5.864 57.2312 6.06 56.4472 6.06C56.1272 6.06 55.8032 6.048 55.4752 6.024ZM56.4352 2.796C56.2592 2.796 55.9392 2.804 55.4752 2.82V5.052C55.8512 5.084 56.1632 5.1 56.4112 5.1C56.8672 5.1 57.2232 4.996 57.4792 4.788C57.7432 4.58 57.8752 4.296 57.8752 3.936C57.8752 3.176 57.3952 2.796 56.4352 2.796Z" fill="#364B76"/>
<path d="M66.3474 8.16H65.3274V5.424H61.7034V8.16H60.6834V1.86H61.7034V4.464H65.3274V1.86H66.3474V8.16Z" fill="#364B76"/>
<path d="M75.0552 8.16H74.0352V1.86H75.0552V8.16ZM70.3872 4.98C70.1872 4.98 69.9312 4.992 69.6192 5.016V7.2C70.0512 7.216 70.2992 7.224 70.3632 7.224C71.4112 7.224 71.9352 6.836 71.9352 6.06C71.9352 5.34 71.4192 4.98 70.3872 4.98ZM68.5992 1.86H69.6192V4.056C69.9552 4.032 70.2392 4.02 70.4712 4.02C71.3032 4.02 71.9352 4.196 72.3672 4.548C72.7992 4.9 73.0152 5.396 73.0152 6.036C73.0152 6.7 72.7672 7.224 72.2712 7.608C71.7832 7.992 71.1072 8.184 70.2432 8.184C69.8912 8.184 69.5912 8.18 69.3432 8.172C69.0952 8.164 68.8472 8.16 68.5992 8.16V1.86Z" fill="#364B76"/>
<path d="M82.1479 3.48L78.2119 8.16H77.3119V1.86H78.3319V6.54L82.2679 1.86H83.1679V8.16H82.1479V3.48ZM78.4039 0H79.3039C79.3039 0.52 79.6119 0.78 80.2279 0.78C80.8119 0.78 81.1039 0.52 81.1039 0H82.0039C82.0039 0.472 81.8439 0.84 81.5239 1.104C81.2119 1.368 80.7799 1.5 80.2279 1.5C79.6359 1.5 79.1839 1.372 78.8719 1.116C78.5599 0.852 78.4039 0.48 78.4039 0Z" fill="#364B76"/>
<path d="M5.532 18.16H0V11.86H1.02V17.2H4.524V11.86H5.544V17.2H6.492V19.3H5.532V18.16Z" fill="#364B76"/>
<path d="M12.1972 18.16H8.02125V11.86H12.1012V12.82H9.04125V14.5H11.8012V15.46H9.04125V17.2H12.1972V18.16Z" fill="#364B76"/>
<path d="M19.7846 18.16H18.7646V15.424H15.1406V18.16H14.1206V11.86H15.1406V14.464H18.7646V11.86H19.7846V18.16Z" fill="#364B76"/>
<path d="M23.4644 12.82H21.1244V11.86H26.8364V12.82H24.4844V18.16H23.4644V12.82Z" fill="#364B76"/>
<path d="M29.2027 16.024V18.16H28.1827V11.86C28.4627 11.86 28.7667 11.856 29.0947 11.848C29.4227 11.84 29.7467 11.836 30.0667 11.836C30.9627 11.836 31.6227 12.024 32.0467 12.4C32.4707 12.768 32.6827 13.28 32.6827 13.936C32.6827 14.568 32.4587 15.08 32.0107 15.472C31.5707 15.864 30.9587 16.06 30.1747 16.06C29.8547 16.06 29.5307 16.048 29.2027 16.024ZM30.1627 12.796C29.9867 12.796 29.6667 12.804 29.2027 12.82V15.052C29.5787 15.084 29.8907 15.1 30.1387 15.1C30.5947 15.1 30.9507 14.996 31.2067 14.788C31.4707 14.58 31.6027 14.296 31.6027 13.936C31.6027 13.176 31.1227 12.796 30.1627 12.796Z" fill="#364B76"/>
<path d="M37.3462 18.148V11.872C38.2502 11.84 38.9582 11.824 39.4702 11.824C40.2302 11.824 40.7943 11.964 41.1623 12.244C41.5382 12.516 41.7262 12.896 41.7262 13.384C41.7262 13.744 41.6222 14.056 41.4142 14.32C41.2062 14.584 40.9222 14.764 40.5622 14.86V14.872C41.4902 15.008 41.9543 15.492 41.9543 16.324C41.9543 16.932 41.7262 17.396 41.2702 17.716C40.8142 18.036 40.1942 18.196 39.4102 18.196C38.5142 18.196 37.8262 18.18 37.3462 18.148ZM39.5422 15.424H38.3662V17.188C38.5902 17.22 38.9622 17.236 39.4823 17.236C40.4502 17.236 40.9342 16.92 40.9342 16.288C40.9342 15.712 40.4702 15.424 39.5422 15.424ZM39.4582 12.784C39.1862 12.784 38.8223 12.796 38.3662 12.82V14.524H39.5182C39.8623 14.524 40.1463 14.444 40.3703 14.284C40.5942 14.124 40.7062 13.912 40.7062 13.648C40.7062 13.072 40.2902 12.784 39.4582 12.784Z" fill="#364B76"/>
<path d="M49.6904 11.728H51.0224L48.0704 14.668L51.1784 18.028H49.7864L46.8224 14.74L49.6904 11.728ZM46.7384 18.028H45.7184V11.728H46.7384V18.028Z" fill="#364B76"/>
<path d="M64.9341 18.1V11.824C65.8381 11.792 66.5461 11.776 67.0581 11.776C67.8181 11.776 68.3821 11.916 68.7501 12.196C69.1261 12.468 69.3141 12.848 69.3141 13.336C69.3141 13.696 69.2101 14.008 69.0021 14.272C68.7941 14.536 68.5101 14.716 68.1501 14.812V14.824C69.0781 14.96 69.5421 15.444 69.5421 16.276C69.5421 16.884 69.3141 17.348 68.8581 17.668C68.4021 17.988 67.7821 18.148 66.9981 18.148C66.1021 18.148 65.4141 18.132 64.9341 18.1ZM67.1301 15.376H65.9541V17.14C66.1781 17.172 66.5501 17.188 67.0701 17.188C68.0381 17.188 68.5221 16.872 68.5221 16.24C68.5221 15.664 68.0581 15.376 67.1301 15.376ZM67.0461 12.736C66.7741 12.736 66.4101 12.748 65.9541 12.772V14.476H67.1061C67.4501 14.476 67.7341 14.396 67.9581 14.236C68.1821 14.076 68.2941 13.864 68.2941 13.6C68.2941 13.024 67.8781 12.736 67.0461 12.736Z" fill="#364B76"/>
<path d="M63.6912 18.028H59.5152V11.728H63.5952V12.688H60.5352V14.368H63.2952V15.328H60.5352V17.068H63.6912V18.028Z" fill="#364B76"/>
<path d="M57.0199 13.348L53.0839 18.028H52.1839V11.728H53.2039V16.408L57.1399 11.728H58.0399V18.028H57.0199V13.348Z" fill="#364B76"/>
<path d="M75.0552 18.052H70.8792V11.752H74.9592V12.712H71.8992V14.392H74.6592V15.352H71.8992V17.092H75.0552V18.052Z" fill="#364B76"/>
</g>
</svg>
