<svg width="32" height="31" viewBox="0 0 32 31" fill="none" xmlns="http://www.w3.org/2000/svg">
<g opacity="0.6">
<path fill-rule="evenodd" clip-rule="evenodd" d="M16.1644 7.04353C16.3493 6.94743 16.5439 6.86006 16.7477 6.78162C19.243 5.82117 21.7954 7.404 22.7056 9.7685C24.0505 13.2625 21.5834 17.3967 19.6294 20.6711C19.402 21.052 19.1816 21.4214 18.975 21.7767C18.73 22.1979 18.2233 22.393 17.7591 22.2447C17.3676 22.1196 16.9564 21.9934 16.5323 21.8632C12.8872 20.7439 8.28489 19.3308 6.94 15.8368C6.02989 13.4723 6.86236 10.5866 9.35761 9.62614C9.5614 9.5477 9.76437 9.48204 9.96599 9.42937C9.96661 9.42921 9.96723 9.42905 9.96786 9.42889C11.28 9.08661 12.5352 9.29436 13.5899 10.1074C13.6364 10.1432 13.6824 10.1802 13.7281 10.2183C13.7913 10.2711 13.8907 10.2329 13.9022 10.1513C13.9105 10.0924 13.9199 10.0341 13.9303 9.97635C14.1677 8.66599 14.9597 7.67027 16.1627 7.04443C16.1633 7.04413 16.1639 7.04383 16.1644 7.04353ZM11.9385 5.30913C12.8593 4.30281 14.0249 3.54356 15.3108 3.0486C20.3742 1.09967 24.945 4.45123 26.4386 8.33163C27.7468 11.7305 26.8455 15.0865 25.8376 17.4988C25.0236 19.4473 23.8593 21.3942 22.9905 22.8472C22.7853 23.1904 22.5965 23.506 22.4328 23.7876C21.2445 25.8309 18.7936 26.7743 16.5419 26.055C16.2317 25.9559 15.88 25.8483 15.4977 25.7313C13.8788 25.2358 11.7096 24.5719 9.79925 23.6721C7.43413 22.5581 4.51526 20.6726 3.20699 17.2737C1.71339 13.3933 2.85738 7.84206 7.92074 5.89313C9.20665 5.39817 10.5806 5.17991 11.9385 5.30913Z" fill="white"/>
</g>
</svg>
