<svg width="64" height="64" viewBox="0 0 64 64" fill="none" xmlns="http://www.w3.org/2000/svg">
<path fill-rule="evenodd" clip-rule="evenodd" d="M32.003 0C23.3122 0 22.2216 0.038 18.8082 0.193333C15.4015 0.349333 13.0761 0.888667 11.0414 1.68C8.93676 2.49733 7.15141 3.59067 5.37272 5.37C3.5927 7.14867 2.49936 8.934 1.67935 11.038C0.886009 13.0733 0.346004 15.3993 0.192669 18.8047C0.0400004 22.218 0 23.3093 0 32C0 40.6907 0.0386671 41.778 0.193335 45.1913C0.350004 48.598 0.889343 50.9233 1.68002 52.958C2.49803 55.0627 3.59137 56.848 5.37072 58.6267C7.14874 60.4067 8.93409 61.5027 11.0374 62.32C13.0735 63.1113 15.3995 63.6507 18.8055 63.8067C22.2189 63.962 23.3089 64 31.999 64C40.6904 64 41.7778 63.962 45.1911 63.8067C48.5978 63.6507 50.9259 63.1113 52.9619 62.32C55.0659 61.5027 56.8486 60.4067 58.6266 58.6267C60.4066 56.848 61.5 55.0627 62.32 52.9587C63.1067 50.9233 63.6467 48.5973 63.8067 45.192C63.96 41.7787 64 40.6907 64 32C64 23.3093 63.96 22.2187 63.8067 18.8053C63.6467 15.3987 63.1067 13.0733 62.32 11.0387C61.5 8.934 60.4066 7.14867 58.6266 5.37C56.8466 3.59 55.0666 2.49667 52.9599 1.68C50.9199 0.888667 48.5932 0.349333 45.1865 0.193333C41.7731 0.038 40.6864 0 31.993 0H32.003ZM29.1324 5.76664C29.9845 5.76531 30.9351 5.76664 32.0031 5.76664C40.5472 5.76664 41.5599 5.79731 44.9339 5.95064C48.054 6.09331 49.7473 6.61464 50.8753 7.05264C52.3687 7.63264 53.4334 8.32597 54.5527 9.44597C55.6727 10.566 56.3661 11.6326 56.9474 13.126C57.3854 14.2526 57.9074 15.946 58.0494 19.066C58.2027 22.4393 58.2361 23.4526 58.2361 31.9926C58.2361 40.5326 58.2027 41.546 58.0494 44.9193C57.9067 48.0393 57.3854 49.7326 56.9474 50.8593C56.3674 52.3526 55.6727 53.416 54.5527 54.5353C53.4327 55.6553 52.3694 56.3486 50.8753 56.9286C49.7487 57.3686 48.054 57.8886 44.9339 58.0313C41.5606 58.1846 40.5472 58.218 32.0031 58.218C23.4584 58.218 22.4457 58.1846 19.0723 58.0313C15.9523 57.8873 14.259 57.366 13.1303 56.928C11.6369 56.348 10.5702 55.6546 9.45024 54.5346C8.33022 53.4146 7.63688 52.3506 7.05554 50.8566C6.61754 49.73 6.09553 48.0366 5.95353 44.9166C5.8002 41.5433 5.76953 40.53 5.76953 31.9846C5.76953 23.4393 5.8002 22.4313 5.95353 19.058C6.0962 15.938 6.61754 14.2446 7.05554 13.1166C7.63555 11.6233 8.33022 10.5566 9.45024 9.43664C10.5702 8.31664 11.6369 7.62331 13.1303 7.04197C14.2583 6.60197 15.9523 6.08197 19.0723 5.93864C22.0244 5.80531 23.1684 5.76531 29.1324 5.75864V5.76664ZM49.0847 11.0802C46.9646 11.0802 45.2446 12.7982 45.2446 14.9189C45.2446 17.0389 46.9646 18.7589 49.0847 18.7589C51.2047 18.7589 52.9247 17.0389 52.9247 14.9189C52.9247 12.7989 51.2047 11.0802 49.0847 11.0802ZM32.0028 15.5662C22.9274 15.5662 15.5693 22.9242 15.5693 31.9995C15.5693 41.0748 22.9274 48.4295 32.0028 48.4295C41.0783 48.4295 48.4337 41.0748 48.4337 31.9995C48.4337 22.9242 41.0783 15.5662 32.0028 15.5662ZM32.0032 21.3337C37.8939 21.3337 42.67 26.109 42.67 32.0003C42.67 37.891 37.8939 42.667 32.0032 42.667C26.1118 42.667 21.3364 37.891 21.3364 32.0003C21.3364 26.109 26.1118 21.3337 32.0032 21.3337Z" fill="url(#paint0_linear_147_10843)"/>
<defs>
<linearGradient id="paint0_linear_147_10843" x1="64" y1="0" x2="0.000671383" y2="64" gradientUnits="userSpaceOnUse">
<stop stop-color="#FEDA75"/>
<stop offset="0.333626" stop-color="#FA7E1E"/>
<stop offset="0.581516" stop-color="#D62976"/>
<stop offset="0.806552" stop-color="#962FBF"/>
<stop offset="1" stop-color="#4F5BD5"/>
</linearGradient>
</defs>
</svg>
