<svg width="28" height="28" viewBox="0 0 28 28" fill="none" xmlns="http://www.w3.org/2000/svg">
<path d="M8 7.5C8 4.46243 10.4624 2 13.5 2C16.5376 2 19 4.46243 19 7.5C19 10.5376 16.5376 13 13.5 13C10.4624 13 8 10.5376 8 7.5Z" fill="#292D33"/>
<path d="M2 22C2 18.134 5.13401 15 9 15H18C21.866 15 25 18.134 25 22V26H2V22Z" fill="#292D33"/>
<path d="M18.6562 17C19.6357 17 20.4329 17.3922 20.9044 18.1766C20.9466 18.2469 21.0534 18.2469 21.0956 18.1766C21.5671 17.3922 22.3643 17 23.3438 17C24.9265 17 26 18.4056 26 19.8932C26 22.2303 23.4654 24.0551 21.6516 25.4762C21.2704 25.7748 20.7296 25.7748 20.3484 25.4762C18.5346 24.0551 16 22.2303 16 19.8932C16 18.4056 17.0735 17 18.6562 17Z" fill="#E31351"/>
</svg>
