<svg width="174" height="165" viewBox="0 0 174 165" fill="none" xmlns="http://www.w3.org/2000/svg">
<path fill-rule="evenodd" clip-rule="evenodd" d="M109.461 144.324L109.461 144.324C104.24 150.686 95.2292 152.394 88.0424 148.384C85.0523 146.716 81.3606 144.801 77.2676 142.678C67.3224 137.519 55.0079 131.132 44.6315 124.067C29.7043 113.905 13.4978 99.1234 9.38767 77.4438C4.88305 53.6831 17.3439 24.6382 46.4966 19.1113C56.4265 17.2288 66.3513 18.0576 75.1735 21.9865C81.9455 15.1012 90.8783 10.6973 100.808 8.81476C129.961 3.28791 152.188 25.7565 156.692 49.5173C160.803 71.197 151.131 90.8843 140.959 105.805C133.888 116.177 124.766 126.629 117.399 135.07C114.367 138.544 111.633 141.677 109.461 144.324ZM88.5731 31.3739C92.655 27.9637 97.808 25.6685 103.788 24.5348C122.127 21.0581 137.678 35.1203 140.972 52.4976C145.841 78.176 123.728 103.485 106.214 123.53C102.945 127.272 99.8354 130.831 97.0919 134.174C96.7828 134.551 96.2635 134.649 95.838 134.412C92.0612 132.305 87.8653 130.131 83.4532 127.846C59.8175 115.601 29.9759 100.142 25.1077 74.4636C21.8132 57.0863 31.1386 38.3079 49.4768 34.8313C55.4573 33.6975 61.0927 33.9473 66.1396 35.6269C66.3358 35.6922 66.531 35.7596 66.7254 35.8292C71.598 37.5741 75.9028 40.6781 79.4146 45.1839C79.4432 45.2206 79.4717 45.2574 79.5002 45.2943C79.5505 45.3594 79.655 45.3396 79.678 45.2606C79.691 45.2158 79.7041 45.1712 79.7172 45.1266C81.3361 39.648 84.2062 35.1838 88.102 31.7766C88.2574 31.6407 88.4144 31.5065 88.5731 31.3739Z" fill="white"/>
</svg>
