<svg width="54" height="52" viewBox="0 0 54 52" fill="none" xmlns="http://www.w3.org/2000/svg">
<g opacity="0.7">
<path fill-rule="evenodd" clip-rule="evenodd" d="M22.9626 39.1496L24.8882 44.5329C21.7418 45.6584 18.2394 44.4119 16.5114 41.5517C16.1306 40.9214 15.6669 40.188 15.1546 39.3777C13.5442 36.8309 11.454 33.525 9.95245 30.279C7.95461 25.9599 6.1467 20.0878 8.27026 14.1208C10.6367 7.47146 18.1761 1.73688 26.6596 4.75602C29.0684 5.61328 31.2181 7.00096 32.8571 8.88161C35.3157 8.45924 37.8588 8.74167 40.2676 9.59892C48.7511 12.6181 50.9725 21.8264 48.6061 28.4758C46.4826 34.4427 41.3714 37.8525 37.0941 39.9383C33.8795 41.5059 30.1707 42.748 27.3134 43.7049C26.4044 44.0093 25.5816 44.2849 24.8882 44.5329L22.9626 39.1496ZM35.7717 14.708C35.7544 14.7067 35.7372 14.7054 35.7199 14.7042C33.7316 14.5661 31.8738 15.1593 30.3071 16.5409C30.2685 16.5751 30.23 16.6097 30.1916 16.6447C30.1309 16.7003 30.0309 16.6647 30.0189 16.5833C30.0113 16.5319 30.0034 16.4807 29.9949 16.4298C29.6534 14.3691 28.5881 12.7356 26.9595 11.5865C26.9454 11.5766 26.9312 11.5666 26.9169 11.5567C26.25 11.0924 25.4901 10.7085 24.6479 10.4087C20.0531 8.77353 15.4725 11.7786 13.923 16.1325C11.6332 22.5664 16.3243 29.9901 20.0398 35.8699C20.6078 36.7687 21.153 37.6315 21.6469 38.4491C21.8989 38.8662 22.4086 39.0476 22.8674 38.8834C23.7669 38.5617 24.7345 38.2374 25.7427 37.8994C32.3374 35.6889 40.6637 32.8979 42.9534 26.4641C44.5029 22.1101 42.8506 16.8868 38.2559 15.2516C37.4137 14.9519 36.582 14.7694 35.7717 14.708Z" fill="white"/>
</g>
</svg>
