<svg width="99" height="95" viewBox="0 0 99 95" fill="none" xmlns="http://www.w3.org/2000/svg">
<g opacity="0.85">
<path fill-rule="evenodd" clip-rule="evenodd" d="M33.7337 79.8572L33.7337 79.8572C32.7383 78.495 31.4912 76.8814 30.1061 75.0891C26.4437 70.3503 21.816 64.3625 18.3221 58.4697C13.4275 50.2145 8.78451 39.1534 11.7679 27.3324C15.0501 14.3272 28.1824 2.40172 44.422 6.50027C49.5264 7.7885 54.1115 10.292 57.6109 13.9662C62.4348 12.3926 67.6588 12.3648 72.7632 13.653C89.0028 17.7515 94.9033 34.4804 91.621 47.4856C88.6376 59.3067 79.3019 66.8398 71.0761 71.7837C65.2043 75.3128 58.2894 78.3875 52.817 80.8208C50.7472 81.7412 48.8838 82.5697 47.3612 83.2964C42.5798 85.5785 36.8595 84.1347 33.7337 79.8572ZM63.0142 22.9201C65.3097 22.5568 67.7668 22.7056 70.3161 23.349C79.8855 25.7641 84.2136 35.9707 81.9251 45.0386C78.5433 58.4382 62.3032 65.654 49.4405 71.3692C47.1776 72.3746 45.0193 73.3336 43.0538 74.2717C42.614 74.4816 42.0953 74.3506 41.8077 73.9572C40.5228 72.1988 39.0781 70.3305 37.5633 68.3717C28.9531 57.2372 18.0821 43.1791 21.4639 29.7794C23.7524 20.7116 32.4056 13.7811 41.9749 16.1962C44.5243 16.8396 46.7577 17.8746 48.6058 19.2838C48.6682 19.3314 48.7303 19.3794 48.7918 19.4279C51.3589 21.4488 53.1565 24.2111 53.991 27.666C54.0022 27.7127 54.0133 27.7595 54.0243 27.8064C54.0429 27.8866 54.1459 27.9126 54.2004 27.8509C54.2323 27.8148 54.2643 27.7789 54.2964 27.7431C56.6703 25.0979 59.5635 23.5195 62.7821 22.9587C62.8593 22.9453 62.9367 22.9324 63.0142 22.9201Z" fill="white"/>
</g>
</svg>
