<svg width="94" height="23" viewBox="0 0 94 23" fill="none" xmlns="http://www.w3.org/2000/svg">
<path d="M16.192 14.912C16.192 19.3707 12.9493 21.6 6.464 21.6H0V0H7.296C9.57867 0 11.4347 0.458667 12.864 1.376C14.3147 2.272 15.04 3.75467 15.04 5.824C15.04 7.424 14.2613 8.74667 12.704 9.792C15.0293 10.7733 16.192 12.48 16.192 14.912ZM9.76 6.304C9.76 4.74667 8.75733 3.968 6.752 3.968H5.44V8.832H8.16C9.22667 8.256 9.76 7.41333 9.76 6.304ZM10.656 15.104C10.656 13.4613 9.664 12.64 7.68 12.64H5.44V17.664H6.944C8.20267 17.664 9.13067 17.472 9.728 17.088C10.3467 16.704 10.656 16.0427 10.656 15.104Z" fill="#364B76"/>
<path d="M30.9495 13.12L30.8535 15.392L22.5655 15.744C22.7788 16.6613 23.1308 17.2693 23.6215 17.568C24.1122 17.8667 24.7628 18.0053 25.5735 17.984C27.1948 17.984 28.4748 17.7387 29.4135 17.248L29.8935 16.992V21.184C28.7628 21.5893 27.2802 21.792 25.4455 21.792C23.1628 21.792 21.3175 21.28 19.9095 20.256C18.3735 19.104 17.6055 17.0347 17.6055 14.048C17.6055 11.5307 18.2135 9.61067 19.4295 8.288C20.6668 6.944 22.3308 6.272 24.4215 6.272C28.7735 6.272 30.9495 8.55467 30.9495 13.12ZM22.5335 12.512L26.3735 12.32C26.3735 10.784 25.7762 10.016 24.5815 10.016C23.3228 10.016 22.6402 10.848 22.5335 12.512Z" fill="#364B76"/>
<path d="M31.8977 10.144L33.2097 6.464H46.1057L44.7938 10.144H41.2098V21.6H36.3137V10.144H31.8977Z" fill="#364B76"/>
<path d="M66.301 0L58.141 9.536L66.109 20.96L60.509 22.048L54.845 13.344L53.565 14.88V21.6H48.125V0H53.565V8.48L60.189 0H66.301Z" fill="#364B76"/>
<path d="M66.9293 21.024L66.3213 20.8L67.3453 16.8C68.4759 17.632 69.7239 18.048 71.0893 18.048C71.7293 18.048 72.3053 17.856 72.8173 17.472C73.3293 17.0667 73.7026 16.48 73.9373 15.712H67.6333L68.3693 12.416H73.9373C73.4893 10.8587 72.4652 10.08 70.8652 10.08C69.3292 10.08 68.1239 10.336 67.2493 10.848L66.7692 11.104V6.912C67.8572 6.48533 69.2653 6.272 70.9933 6.272C73.2973 6.272 75.2066 6.90133 76.7213 8.16C78.2359 9.41867 78.9933 11.3707 78.9933 14.016C78.9933 16.7253 78.2573 18.6987 76.7853 19.936C75.3346 21.1733 73.4679 21.792 71.1852 21.792C69.5212 21.792 68.1026 21.536 66.9293 21.024Z" fill="#364B76"/>
<path d="M79.1165 10.144L80.4285 6.464H93.3245L92.0125 10.144H88.4285V21.6H83.5325V10.144H79.1165Z" fill="#364B76"/>
</svg>
