<svg width="64" height="64" viewBox="0 0 64 64" fill="none" xmlns="http://www.w3.org/2000/svg">
<path fill-rule="evenodd" clip-rule="evenodd" d="M37.6511 14.2328C40.6283 11.2557 45.4554 11.2557 48.4326 14.2328L49.7708 15.5709C52.748 18.5479 52.748 23.3747 49.7708 26.3518L44.1216 32.0007L49.7708 37.6496C52.748 40.6266 52.748 45.4534 49.7708 48.4304L48.4326 49.7685C45.4554 52.7456 40.6283 52.7456 37.6511 49.7685L32.0019 44.1196L26.3526 49.7685C23.3754 52.7456 18.5483 52.7456 15.5711 49.7685L14.2329 48.4304C11.2557 45.4534 11.2557 40.6266 14.2329 37.6496L19.8822 32.0007L14.2329 26.3518C11.2557 23.3747 11.2557 18.548 14.2329 15.5709L15.5711 14.2328C18.5483 11.2557 23.3754 11.2557 26.3526 14.2328L32.0019 19.8817L37.6511 14.2328ZM30.5876 21.2959L24.9384 15.647C22.7422 13.4509 19.1815 13.4509 16.9854 15.647L15.6472 16.9851C13.451 19.1811 13.451 22.7416 15.6472 24.9376L21.2964 30.5865L23.9476 27.9354C23.6017 28.0472 23.2069 27.9657 22.9322 27.691L22.2624 27.0215C21.8719 26.631 21.8719 25.9979 22.2624 25.6075C22.653 25.217 23.2863 25.217 23.6768 25.6075L24.3466 26.277C24.6212 26.5516 24.7027 26.9462 24.5911 27.292L27.9635 23.9198C27.6172 24.0324 27.2215 23.9511 26.9463 23.676L26.2767 23.0064C25.8861 22.6158 25.8861 21.9827 26.2767 21.5922C26.6672 21.2017 27.3004 21.2017 27.6909 21.5922L28.3606 22.2618C28.6358 22.537 28.717 22.9326 28.6044 23.2789L30.5876 21.2959ZM33.4161 42.7055L39.0653 48.3544C41.2615 50.5504 44.8222 50.5504 47.0184 48.3544L48.3565 47.0163C50.5527 44.8202 50.5527 41.2598 48.3565 39.0637L42.7073 33.4148L40.7231 35.3989C41.0697 35.2859 41.4658 35.3671 41.7412 35.6425L42.4109 36.3121C42.8014 36.7026 42.8014 37.3357 42.4109 37.7263C42.0203 38.1168 41.3872 38.1168 40.9966 37.7263L40.327 37.0566C40.0515 36.7812 39.9704 36.3851 40.0834 36.0386L36.71 39.4118C37.0563 39.2992 37.4519 39.3805 37.727 39.6557L38.3966 40.3253C38.7871 40.7159 38.7871 41.3491 38.3966 41.7396C38.0061 42.1302 37.373 42.1302 36.9825 41.7396L36.3129 41.07C36.0377 40.7948 35.9564 40.3991 36.0691 40.0527L33.4161 42.7055ZM47.0184 15.647C44.8222 13.4509 41.2615 13.4509 39.0654 15.647L32.709 22.0029L22.0035 32.7077L15.6472 39.0637C13.451 41.2598 13.451 44.8202 15.6472 47.0163L16.9854 48.3544C19.1815 50.5504 22.7422 50.5504 24.9384 48.3544L31.2947 41.9984L42.0002 31.2936L48.3565 24.9376C50.5527 22.7416 50.5527 19.1811 48.3565 16.9851L47.0184 15.647ZM42.41 18.9929C42.8002 18.6021 42.8002 17.9684 42.41 17.5776C42.0197 17.1868 41.387 17.1868 40.9968 17.5776L40.3276 18.2478C39.9374 18.6386 39.9374 19.2722 40.3276 19.663C40.7179 20.0538 41.3506 20.0538 41.7408 19.663L42.41 18.9929ZM24.3463 37.0563C24.7368 36.6658 24.7368 36.0327 24.3463 35.6423C23.9557 35.2518 23.3224 35.2518 22.9319 35.6423L22.2622 36.3118C21.8716 36.7023 21.8716 37.3354 22.2622 37.7258C22.6527 38.1163 23.286 38.1163 23.6765 37.7258L24.3463 37.0563ZM42.4107 21.5919C42.8012 21.9824 42.8012 22.6156 42.4107 23.0061L41.741 23.6757C41.3505 24.0662 40.7173 24.0662 40.3267 23.6757C39.9362 23.2852 39.9362 22.652 40.3267 22.2615L40.9964 21.5919C41.3869 21.2014 42.0201 21.2014 42.4107 21.5919ZM24.3463 41.0705C24.7368 40.68 24.7368 40.047 24.3463 39.6565C23.9557 39.266 23.3224 39.266 22.9319 39.6565L22.2622 40.326C21.8716 40.7165 21.8716 41.3496 22.2622 41.7401C22.6527 42.1306 23.286 42.1306 23.6765 41.7401L24.3463 41.0705ZM38.3965 21.5919C38.787 21.9824 38.787 22.6156 38.3965 23.0061L37.7268 23.6757C37.3363 24.0662 36.7031 24.0662 36.3126 23.6757C35.922 23.2852 35.922 22.652 36.3126 22.2615L36.9822 21.5919C37.3728 21.2014 38.006 21.2014 38.3965 21.5919ZM20.3311 41.0705C20.7217 40.68 20.7217 40.047 20.3311 39.6565C19.9406 39.266 19.3073 39.266 18.9167 39.6565L18.247 40.326C17.8564 40.7165 17.8564 41.3496 18.247 41.7401C18.6376 42.1306 19.2708 42.1306 19.6614 41.7401L20.3311 41.0705ZM46.4248 21.5919C46.8153 21.9824 46.8153 22.6156 46.4248 23.0061L45.7552 23.6757C45.3646 24.0662 44.7314 24.0662 44.3409 23.6757C43.9504 23.2852 43.9504 22.652 44.3409 22.2615L45.0106 21.5919C45.4011 21.2014 46.0343 21.2014 46.4248 21.5919ZM28.3604 41.0706C28.7509 40.6801 28.7509 40.0469 28.3604 39.6564C27.9698 39.2659 27.3366 39.2659 26.9461 39.6564L26.2764 40.326C25.8859 40.7165 25.8859 41.3497 26.2764 41.7402C26.667 42.1307 27.3002 42.1307 27.6907 41.7402L28.3604 41.0706ZM42.4107 25.6066C42.8012 25.9971 42.8012 26.6303 42.4107 27.0208L41.741 27.6904C41.3505 28.0809 40.7173 28.0809 40.3267 27.6904C39.9362 27.2999 39.9362 26.6668 40.3267 26.2762L40.9964 25.6066C41.3869 25.2161 42.0201 25.2161 42.4107 25.6066ZM24.3463 45.0852C24.7368 44.6948 24.7368 44.0617 24.3463 43.6712C23.9557 43.2807 23.3224 43.2807 22.9319 43.6712L22.2622 44.3407C21.8716 44.7312 21.8716 45.3643 22.2622 45.7548C22.6527 46.1453 23.286 46.1453 23.6765 45.7548L24.3463 45.0852ZM18.2465 21.5931C18.6375 21.2031 19.2715 21.2031 19.6625 21.5931L20.3331 22.2619C20.7241 22.6519 20.7241 23.2842 20.3331 23.6742C19.942 24.0642 19.308 24.0642 18.917 23.6742L18.2465 23.0054C17.8554 22.6154 17.8554 21.9831 18.2465 21.5931ZM22.2624 21.5923C22.653 21.2018 23.2863 21.2018 23.6768 21.5923L24.3466 22.2618C24.7371 22.6523 24.7371 23.2854 24.3466 23.6758C23.956 24.0663 23.3227 24.0663 22.9322 23.6758L22.2624 23.0063C21.8719 22.6158 21.8719 21.9827 22.2624 21.5923ZM41.7412 39.6557C41.3507 39.2651 40.7175 39.2651 40.327 39.6557C39.9365 40.0462 39.9365 40.6794 40.327 41.07L40.9966 41.7396C41.3871 42.1302 42.0203 42.1302 42.4108 41.7396C42.8013 41.3491 42.8013 40.7159 42.4108 40.3253L41.7412 39.6557ZM41.7406 43.669C41.3503 43.2782 40.7176 43.2782 40.3274 43.669C39.9371 44.0598 39.9371 44.6935 40.3274 45.0843L40.9965 45.7544C41.3868 46.1452 42.0195 46.1452 42.4097 45.7544C42.7999 45.3636 42.7999 44.73 42.4097 44.3391L41.7406 43.669ZM22.2624 17.5785C22.653 17.188 23.2863 17.188 23.6768 17.5785L24.3466 18.2481C24.7371 18.6385 24.7371 19.2716 24.3466 19.6621C23.956 20.0526 23.3227 20.0526 22.9322 19.6621L22.2624 18.9926C21.8719 18.6021 21.8719 17.969 22.2624 17.5785ZM45.7563 39.6557C45.3658 39.2651 44.7327 39.2651 44.3422 39.6557C43.9517 40.0462 43.9517 40.6794 44.3422 41.07L45.0118 41.7396C45.4023 42.1302 46.0354 42.1302 46.4259 41.7396C46.8164 41.3491 46.8164 40.7159 46.4259 40.3253L45.7563 39.6557ZM34.42 25.6452C33.639 24.8641 32.3726 24.8641 31.5915 25.6452L26.3136 30.9227C25.5325 31.7038 25.5325 32.9701 26.3136 33.7511L30.2531 37.6903C31.0342 38.4713 32.3005 38.4713 33.0816 37.6903L38.3595 32.4127C39.1406 31.6317 39.1406 30.3654 38.3595 29.5844L34.42 25.6452ZM27.7279 32.3369L33.0058 27.0593L36.9452 30.9986L31.6673 36.2761L27.7279 32.3369Z" fill="#086358"/>
</svg>
