<svg width="64" height="64" viewBox="0 0 64 64" fill="none" xmlns="http://www.w3.org/2000/svg">
<path fill-rule="evenodd" clip-rule="evenodd" d="M28 13C28 12.4477 28.4477 12 29 12H32H35C35.5523 12 36 12.4477 36 13C36 13.5523 35.5523 14 35 14H33V17.006C44.0908 17.2715 53 26.3453 53 37.5C53 38.8807 51.8807 40 50.5 40H33V42H46.75C50.2018 42 53 44.7982 53 48.25C53 49.2165 52.2165 50 51.25 50H12.75C11.7835 50 11 49.2165 11 48.25C11 44.7982 13.7982 42 17.25 42H31V40H13.5C12.1193 40 11 38.8807 11 37.5C11 26.3453 19.9092 17.2715 31 17.006V14H29C28.4477 14 28 13.5523 28 13ZM31.5 19C21.2827 19 13 27.2827 13 37.5C13 37.7761 13.2239 38 13.5 38H32H50.5C50.7761 38 51 37.7761 51 37.5C51 27.2827 42.7173 19 32.5 19H32H31.5ZM49.4888 45C48.7491 44.376 47.7935 44 46.75 44H32H17.25C16.2065 44 15.2509 44.376 14.5112 45H15C15.5523 45 16 45.4477 16 46C16 46.5523 15.5523 47 15 47H13.1868C13.0888 47.319 13.0273 47.6539 13.0072 48H50.9928C50.9727 47.6539 50.9112 47.319 50.8132 47H49C48.4477 47 48 46.5523 48 46C48 45.4477 48.4477 45 49 45H49.4888ZM44.6081 16.4612C44.9057 15.996 45.5241 15.86 45.9893 16.1575C48.5933 17.8228 50.8805 19.9391 52.7411 22.3964C53.0744 22.8367 52.9878 23.4639 52.5474 23.7973C52.1071 24.1306 51.4799 24.044 51.1465 23.6036C49.4283 21.3343 47.316 19.3799 44.9118 17.8425C44.4466 17.5449 44.3106 16.9265 44.6081 16.4612ZM19.3412 16.4909C19.6398 16.9555 19.5053 17.5742 19.0407 17.8729C16.6562 19.4057 14.5603 21.3493 12.8534 23.6036C12.52 24.044 11.8928 24.1306 11.4525 23.7973C11.0122 23.4639 10.9255 22.8367 11.2589 22.3964C13.1072 19.9552 15.3765 17.8506 17.9593 16.1905C18.4238 15.8918 19.0425 16.0264 19.3412 16.4909ZM22 45C21.4477 45 21 45.4477 21 46C21 46.5523 21.4477 47 22 47H24C24.5523 47 25 46.5523 25 46C25 45.4477 24.5523 45 24 45H22ZM31 45C30.4477 45 30 45.4477 30 46C30 46.5523 30.4477 47 31 47H33C33.5523 47 34 46.5523 34 46C34 45.4477 33.5523 45 33 45H31ZM39 46C39 45.4477 39.4477 45 40 45H42C42.5523 45 43 45.4477 43 46C43 46.5523 42.5523 47 42 47H40C39.4477 47 39 46.5523 39 46Z" fill="#086358"/>
</svg>
