<svg width="64" height="64" viewBox="0 0 64 64" fill="none" xmlns="http://www.w3.org/2000/svg">
<path fill-rule="evenodd" clip-rule="evenodd" d="M18 15C18 13.8954 18.8954 13 20 13H44C45.1046 13 46 13.8954 46 15V21H51C53.2091 21 55 22.7909 55 25V48V49H54H45H39.4142L41 50.5858C42.2599 51.8457 41.3676 54 39.5858 54H24.4142C22.6324 54 21.7401 51.8457 23 50.5858L24.5858 49H19H10H9V48V25C9 22.7909 10.7909 21 13 21H18V15ZM18 23H13C11.8954 23 11 23.8954 11 25V47H18V23ZM20 47H27V37C27 35.8954 27.8954 35 29 35H35C36.1046 35 37 35.8954 37 37V47H44V22V15H20V22V47ZM46 47H53V25C53 23.8954 52.1046 23 51 23H46V47ZM27.4142 49L24.4142 52H39.5858L36.5858 49H36H28H27.4142ZM48 27C48 26.4477 48.4477 26 49 26H50C50.5523 26 51 26.4477 51 27C51 27.5523 50.5523 28 50 28H49C48.4477 28 48 27.5523 48 27ZM14 26C13.4477 26 13 26.4477 13 27C13 27.5523 13.4477 28 14 28H15C15.5523 28 16 27.5523 16 27C16 26.4477 15.5523 26 15 26H14ZM48 32C48 31.4477 48.4477 31 49 31H50C50.5523 31 51 31.4477 51 32C51 32.5523 50.5523 33 50 33H49C48.4477 33 48 32.5523 48 32ZM29 47H35V37H29V47ZM14 31C13.4477 31 13 31.4477 13 32C13 32.5523 13.4477 33 14 33H15C15.5523 33 16 32.5523 16 32C16 31.4477 15.5523 31 15 31H14ZM48 37C48 36.4477 48.4477 36 49 36H50C50.5523 36 51 36.4477 51 37C51 37.5523 50.5523 38 50 38H49C48.4477 38 48 37.5523 48 37ZM14 36C13.4477 36 13 36.4477 13 37C13 37.5523 13.4477 38 14 38H15C15.5523 38 16 37.5523 16 37C16 36.4477 15.5523 36 15 36H14ZM48 42C48 41.4477 48.4477 41 49 41H50C50.5523 41 51 41.4477 51 42C51 42.5523 50.5523 43 50 43H49C48.4477 43 48 42.5523 48 42ZM14 41C13.4477 41 13 41.4477 13 42C13 42.5523 13.4477 43 14 43H15C15.5523 43 16 42.5523 16 42C16 41.4477 15.5523 41 15 41H14ZM32 19C28.6863 19 26 21.6863 26 25C26 28.3137 28.6863 31 32 31C35.3137 31 38 28.3137 38 25C38 21.6863 35.3137 19 32 19ZM24 25C24 20.5817 27.5817 17 32 17C36.4183 17 40 20.5817 40 25C40 29.4183 36.4183 33 32 33C27.5817 33 24 29.4183 24 25ZM33 22C33 21.4477 32.5523 21 32 21C31.4477 21 31 21.4477 31 22V24H29C28.4477 24 28 24.4477 28 25C28 25.5523 28.4477 26 29 26H31V28C31 28.5523 31.4477 29 32 29C32.5523 29 33 28.5523 33 28V26H35C35.5523 26 36 25.5523 36 25C36 24.4477 35.5523 24 35 24H33V22Z" fill="#086358"/>
</svg>
