<svg width="64" height="64" viewBox="0 0 64 64" fill="none" xmlns="http://www.w3.org/2000/svg">
<path fill-rule="evenodd" clip-rule="evenodd" d="M53.9202 11.494C54.3107 11.1034 54.3107 10.4703 53.9202 10.0798C53.5296 9.68923 52.8965 9.68923 52.5059 10.0798L46.0213 16.5644C44.9061 16.0317 43.5301 16.2272 42.6064 17.1508L40.4851 19.2721L39.778 18.565C38.997 17.784 37.7306 17.784 36.9496 18.565L17.1506 38.364L15.0293 36.2427C14.6388 35.8522 14.0056 35.8522 13.6151 36.2427C13.2245 36.6332 13.2245 37.2664 13.6151 37.6569L16.4435 40.4854L17.8577 41.8996L13.2615 46.4958L11.8473 45.0815C11.4568 44.691 10.8236 44.691 10.4331 45.0815C10.0426 45.4721 10.0426 46.1052 10.4331 46.4958L12.5544 48.6171L15.3828 51.4455L17.5042 53.5668C17.8947 53.9574 18.5278 53.9574 18.9184 53.5668C19.3089 53.1763 19.3089 52.5431 18.9184 52.1526L17.5042 50.7384L22.1004 46.1422L23.5146 47.5564L26.343 50.3848C26.7335 50.7754 27.3667 50.7754 27.7572 50.3848C28.1477 49.9943 28.1477 49.3612 27.7572 48.9706L25.6359 46.8493L45.4349 27.0503C46.2159 26.2693 46.2159 25.0029 45.4349 24.2219L44.7278 23.5148L46.8491 21.3935C47.7727 20.4698 47.9682 19.0938 47.4355 17.9786L53.9202 11.494ZM45.4349 19.9793L43.3136 22.1006L41.8993 20.6864L44.0207 18.565C44.4112 18.1745 45.0444 18.1745 45.4349 18.565C45.8254 18.9556 45.8254 19.5887 45.4349 19.9793ZM19.979 41.1925L18.5648 39.7782L38.3638 19.9793L39.778 21.3935L42.6064 24.2219L44.0207 25.6361L24.2217 45.4351L22.8075 44.0209L19.979 41.1925ZM14.6757 47.91L19.2719 43.3138L20.6861 44.728L16.0899 49.3242L14.6757 47.91ZM36.9498 25.6362C36.5592 25.2457 35.9261 25.2457 35.5355 25.6362C35.145 26.0267 35.145 26.6599 35.5355 27.0504L36.9498 28.4646C37.3403 28.8552 37.9734 28.8552 38.364 28.4646C38.7545 28.0741 38.7545 27.4409 38.364 27.0504L36.9498 25.6362ZM32.7069 28.4643C33.0975 28.0738 33.7306 28.0738 34.1211 28.4643L35.5354 29.8785C35.9259 30.2691 35.9259 30.9022 35.5354 31.2928C35.1448 31.6833 34.5117 31.6833 34.1211 31.2928L32.7069 29.8785C32.3164 29.488 32.3164 28.8549 32.7069 28.4643ZM31.293 31.2929C30.9025 30.9024 30.2693 30.9024 29.8788 31.2929C29.4883 31.6835 29.4883 32.3166 29.8788 32.7072L31.293 34.1214C31.6835 34.5119 32.3167 34.5119 32.7072 34.1214C33.0978 33.7308 33.0978 33.0977 32.7072 32.7072L31.293 31.2929ZM27.0502 34.1216C27.4407 33.731 28.0739 33.731 28.4644 34.1216L29.8786 35.5358C30.2691 35.9263 30.2691 36.5595 29.8786 36.95C29.4881 37.3405 28.8549 37.3405 28.4644 36.95L27.0502 35.5358C26.6597 35.1452 26.6597 34.5121 27.0502 34.1216ZM25.6363 36.9497C25.2458 36.5592 24.6126 36.5592 24.2221 36.9497C23.8315 37.3402 23.8315 37.9734 24.2221 38.3639L25.6363 39.7781C26.0268 40.1686 26.66 40.1686 27.0505 39.7781C27.441 39.3876 27.441 38.7544 27.0505 38.3639L25.6363 36.9497Z" fill="#086358"/>
</svg>
