<svg width="64" height="64" viewBox="0 0 64 64" fill="none" xmlns="http://www.w3.org/2000/svg">
<path fill-rule="evenodd" clip-rule="evenodd" d="M40.5387 11.3956C35.2265 9.44171 28.7735 9.44171 23.4613 11.3956C22.7074 11.6729 22.4378 12.0287 22.3263 12.3367C22.1963 12.6959 22.2048 13.2033 22.4013 13.8828C22.7153 14.9684 23.3725 16.0935 23.964 17.106L23.9641 17.1061L23.9641 17.1061C24.1351 17.3988 24.3006 17.6821 24.4507 17.9523C24.487 18.0177 24.5222 18.0813 24.5564 18.1433L24.5566 18.1436L24.5566 18.1436L24.5566 18.1437C24.8605 18.6933 25.0919 19.1121 25.3852 19.4091C25.5294 19.5551 25.657 19.635 25.7763 19.6762C25.8897 19.7153 26.0509 19.7389 26.2981 19.6889C26.4723 19.6536 26.7355 19.6025 26.9306 19.5654L26.9315 19.5653L26.9346 19.5647L26.9382 19.564L26.9407 19.5635L26.9414 19.5634L26.9417 19.5633L26.9462 19.5625L26.9472 19.5623L26.9497 19.5618L26.9507 19.5616L26.951 19.5616L26.9516 19.5614L26.9541 19.561L26.9576 19.5603L26.9603 19.5598L26.9619 19.5595C30.6222 18.8748 34.07 18.9538 37.7019 19.6889C37.9491 19.7389 38.1103 19.7153 38.2237 19.6762C38.343 19.635 38.4706 19.5551 38.6148 19.4091C38.9081 19.1121 39.1395 18.6933 39.4434 18.1436C39.4777 18.0815 39.5129 18.0178 39.5493 17.9523C39.6994 17.6822 39.8648 17.399 40.0357 17.1064L40.0358 17.1063L40.0359 17.1061L40.0359 17.1061L40.036 17.106C40.6275 16.0935 41.2847 14.9684 41.5987 13.8828C41.7952 13.2033 41.8037 12.6959 41.6737 12.3367C41.5622 12.0287 41.2926 11.6729 40.5387 11.3956ZM26.8303 19.5929L26.8361 19.5908L26.8321 19.5921L26.8303 19.5929ZM26.1283 21.7159C25.7774 21.7263 25.4419 21.6764 25.1244 21.567C24.6459 21.402 24.2654 21.1216 23.962 20.8143C23.6451 20.4933 23.3795 20.1036 23.1567 19.732C18.8848 21.7958 16.1598 24.6879 14.4683 28.1309C12.6572 31.8172 12 36.1999 12 41.0002C12 42.6842 12.4346 43.8195 13.0756 44.6145C13.7252 45.4202 14.6659 45.9742 15.8452 46.3446C17.6457 46.9101 19.8043 46.9969 21.9103 47.0044C19.2242 43.3225 17.8846 38.5384 17.2849 34.3588C17.0904 33.0033 18.2372 32.0725 19.3076 31.9967C22.4037 31.7773 25.9281 28.7952 26.1283 21.7159ZM23.4296 49.002C23.3446 49.0024 23.2588 49.0028 23.1723 49.0033L23.171 49.0033C20.7403 49.0161 17.7271 49.032 15.2459 48.2527C13.8234 47.8059 12.4913 47.0762 11.5186 45.8699C10.5373 44.6527 10 43.0474 10 41.0002C10 36.0427 10.6744 31.3176 12.6732 27.249C14.551 23.4269 17.5701 20.2411 22.162 17.9918C21.5793 16.9944 20.8398 15.6824 20.4801 14.4385C20.23 13.5739 20.1096 12.5851 20.4456 11.6563C20.8002 10.6763 21.5915 9.95232 22.7709 9.51853C28.5288 7.40073 35.4712 7.40073 41.2291 9.51853C42.4085 9.95232 43.1998 10.6763 43.5544 11.6563C43.8904 12.5851 43.77 13.5739 43.5199 14.4385C43.1602 15.6824 42.4207 16.9944 41.838 17.9918C46.4299 20.2411 49.449 23.4269 51.3268 27.249C53.3256 31.3176 54 36.0427 54 41.0002C54 43.0474 53.4627 44.6527 52.4814 45.8699C51.5087 47.0762 50.1766 47.8059 48.7541 48.2527C46.2729 49.032 43.2597 49.0161 40.829 49.0033L40.8277 49.0033C40.6761 49.0025 40.5268 49.0017 40.38 49.0011C37.8852 51.4805 34.9761 52.7825 32 52.7825C29.0239 52.7825 26.1148 51.4805 23.62 49.0011C23.557 49.0014 23.4935 49.0017 23.4296 49.002ZM42.0975 47.0043C44.201 46.9967 46.3565 46.9094 48.1548 46.3446C49.3341 45.9742 50.2748 45.4202 50.9244 44.6145C51.5654 43.8195 52 42.6842 52 41.0002C52 36.1999 51.3428 31.8172 49.5317 28.1309C47.8402 24.6879 45.1152 21.7958 40.8433 19.732C40.6205 20.1036 40.3549 20.4933 40.038 20.8143C39.7346 21.1216 39.3541 21.402 38.8756 21.567C38.391 21.734 37.8646 21.7624 37.3051 21.6491C34.2297 21.0267 31.3277 20.9104 28.2936 21.3633C28.7876 23.8407 29.7815 26.8369 31.7267 29.0143C32.8157 30.2331 34.1999 31.193 35.9795 31.6763C37.7641 32.161 40.0132 32.1844 42.8539 31.4204C43.8478 31.1531 44.8706 31.3755 45.6231 31.9397C46.389 32.5139 46.8899 33.4619 46.7447 34.5705C46.2007 38.7237 44.7585 43.3967 42.0975 47.0043ZM27.5721 25.9547C26.3027 30.9955 23.0523 33.7363 19.449 33.9917C19.3768 33.9968 19.3131 34.0315 19.2791 34.0677C19.2725 34.0747 19.2684 34.0803 19.2659 34.0841C19.9416 38.785 21.5521 43.9492 24.7621 47.3094C27.0186 49.6716 29.5457 50.7825 32 50.7825C34.4543 50.7825 36.9814 49.6716 39.2379 47.3094C42.4085 43.9905 44.1579 38.9201 44.7616 34.3107C44.8029 33.9959 44.6772 33.7302 44.4233 33.5399C44.156 33.3394 43.7658 33.2462 43.3733 33.3518C40.2657 34.1875 37.6494 34.2023 35.4553 33.6064C33.2561 33.0091 31.5482 31.8163 30.2353 30.3467C29.0618 29.0332 28.2021 27.4974 27.5721 25.9547ZM28.8885 43.5412C28.638 43.0557 28.0429 42.8605 27.5528 43.1056C27.0588 43.3526 26.8586 43.9532 27.1056 44.4472L28 44C27.1056 44.4472 27.1058 44.4477 27.1061 44.4483L27.1067 44.4494L27.1079 44.4518L27.1106 44.4571L27.1173 44.47C27.1205 44.4761 27.1242 44.4831 27.1283 44.4908C27.1307 44.4951 27.1331 44.4996 27.1357 44.5044C27.1504 44.531 27.1697 44.5648 27.194 44.6049C27.2427 44.685 27.3116 44.7904 27.4031 44.9125C27.5859 45.1562 27.8619 45.4701 28.2503 45.7809C29.0398 46.4125 30.2571 47 32 47C33.7429 47 34.9602 46.4125 35.7497 45.7809C36.1381 45.4701 36.4141 45.1562 36.5969 44.9125C36.6884 44.7904 36.7573 44.685 36.806 44.6049C36.8303 44.5648 36.8496 44.531 36.8643 44.5044C36.8683 44.497 36.872 44.4901 36.8754 44.4838C36.8781 44.4789 36.8805 44.4742 36.8827 44.47L36.8894 44.4571L36.8921 44.4518L36.8933 44.4494L36.8939 44.4483C36.8942 44.4477 36.8944 44.4472 36 44L36.8944 44.4472C37.1414 43.9532 36.9412 43.3526 36.4472 43.1056C35.9571 42.8605 35.362 43.0557 35.1115 43.5412C35.1096 43.5445 35.1046 43.5534 35.0964 43.567C35.0786 43.5963 35.0459 43.6471 34.9969 43.7125C34.8984 43.8438 34.7369 44.0299 34.5003 44.2191C34.0398 44.5875 33.2571 45 32 45C30.7429 45 29.9602 44.5875 29.4997 44.2191C29.2631 44.0299 29.1016 43.8438 29.0031 43.7125C28.9541 43.6471 28.9214 43.5963 28.9036 43.567C28.8987 43.5589 28.895 43.5525 28.8924 43.548C28.8906 43.5448 28.8893 43.5426 28.8885 43.5412ZM35.1061 43.5518L35.1056 43.5528L35.9793 43.9897C35.1056 43.5528 35.1058 43.5523 35.1061 43.5518ZM33 13C33 12.4477 32.5523 12 32 12C31.4477 12 31 12.4477 31 13V14H30C29.4477 14 29 14.4477 29 15C29 15.5523 29.4477 16 30 16H31V17C31 17.5523 31.4477 18 32 18C32.5523 18 33 17.5523 33 17V16H34C34.5523 16 35 15.5523 35 15C35 14.4477 34.5523 14 34 14H33V13Z" fill="#086358"/>
</svg>
