<svg width="17" height="28" viewBox="0 0 17 28" fill="none" xmlns="http://www.w3.org/2000/svg">
<path fill-rule="evenodd" clip-rule="evenodd" d="M0.741409 0.670844C-0.00018047 1.3417 -0.000104951 1.34178 2.57559e-06 1.3419L0.000377727 1.34231L0.00170202 1.34378L0.006633 1.34922L0.0255123 1.37002L0.0984457 1.4501C0.162358 1.52014 0.256407 1.62288 0.377855 1.75469C0.620732 2.0183 0.973291 2.39828 1.41362 2.86557C2.29399 3.79985 3.52667 5.08465 4.93611 6.4869C7.36518 8.90358 10.3657 11.7162 13.0047 13.6708C10.3657 15.6255 7.36518 18.4381 4.93611 20.8548C3.52667 22.257 2.29399 23.5418 1.41362 24.4761C0.973291 24.9434 0.620732 25.3234 0.377855 25.587C0.256407 25.7188 0.162358 25.8215 0.0984457 25.8916L0.0255123 25.9717L0.006633 25.9925L0.00170202 25.9979L0.000377727 25.9994L2.57559e-06 25.9998C-0.000104951 25.9999 -0.00018047 26 0.741409 26.6708L1.48301 27.3417L1.48321 27.3415L1.48418 27.3404L1.4884 27.3357L1.50584 27.3165L1.57578 27.2397C1.63765 27.1719 1.72954 27.0715 1.84871 26.9422C2.08709 26.6835 2.43453 26.309 2.8692 25.8477C3.73882 24.9248 4.95615 23.6561 6.34671 22.2726C9.14555 19.4881 12.5845 16.3014 15.2941 14.5042L16.5506 13.6708L15.2941 12.8375C12.5845 11.0403 9.14555 7.85364 6.34671 5.06907C4.95615 3.68561 3.73882 2.41684 2.8692 1.49397C2.43453 1.03269 2.08709 0.658208 1.84871 0.399493C1.72954 0.270144 1.63765 0.16976 1.57578 0.101963L1.50584 0.0251687L1.4884 0.00595713L1.48418 0.0012967L1.48321 0.000221491L1.48301 0L0.741409 0.670844Z" fill="#292D33"/>
</svg>
