<svg width="17" height="28" viewBox="0 0 17 28" fill="none" xmlns="http://www.w3.org/2000/svg">
<path fill-rule="evenodd" clip-rule="evenodd" d="M15.8091 26.671C16.5507 26.0001 16.5506 26 16.5505 25.9999L16.5502 25.9995L16.5488 25.998L16.5439 25.9926L16.525 25.9718L16.4521 25.8917C16.3882 25.8217 16.2941 25.7189 16.1727 25.5871C15.9298 25.3235 15.5772 24.9435 15.1369 24.4762C14.2565 23.5419 13.0239 22.2571 11.6144 20.8549C9.18535 18.4382 6.18486 15.6256 3.54582 13.671C6.18486 11.7163 9.18535 8.90369 11.6144 6.48701C13.0239 5.08476 14.2565 3.79996 15.1369 2.86568C15.5772 2.3984 15.9298 2.01841 16.1727 1.75481C16.2941 1.62299 16.3882 1.52025 16.4521 1.45022L16.525 1.37013L16.5439 1.34933L16.5488 1.34389L16.5502 1.34242L16.5505 1.34201C16.5506 1.34189 16.5507 1.34181 15.8091 0.670956L15.0675 0.000110756L15.0673 0.000332008L15.0664 0.00140775L15.0621 0.00606931L15.0447 0.0252801L14.9748 0.102074C14.9129 0.169871 14.821 0.270256 14.7018 0.399603C14.4634 0.65832 14.116 1.0328 13.6813 1.49408C12.8117 2.41695 11.5944 3.68572 10.2038 5.06919C7.40499 7.85375 3.96604 11.0404 1.25639 12.8376L-5.46009e-05 13.671L1.25639 14.5043C3.96604 16.3015 7.40499 19.4882 10.2038 22.2727C11.5944 23.6562 12.8117 24.925 13.6813 25.8478C14.116 26.3091 14.4635 26.6836 14.7018 26.9423C14.821 27.0717 14.9129 27.172 14.9748 27.2398L15.0447 27.3166L15.0621 27.3358L15.0664 27.3405L15.0673 27.3416L15.0675 27.3418L15.8091 26.671Z" fill="#292D33"/>
</svg>
